<svg width="98" height="33" viewBox="0 0 98 33" fill="none" xmlns="http://www.w3.org/2000/svg">
<path d="M8.84616 32.1429V26.1347C8.84616 25.7148 9.28846 25.2862 9.73077 25.2862H13.2692C13.7115 25.2862 14.1538 25.7148 14.1538 26.1433V32.1429C14.1538 32.3702 14.247 32.5882 14.4129 32.749C14.5788 32.9097 14.8038 33 15.0385 33H22.1154C22.35 33 22.575 32.9097 22.7409 32.749C22.9068 32.5882 23 32.3702 23 32.1429V20.1437C23.0002 20.031 22.9775 19.9195 22.9332 19.8154C22.8889 19.7112 22.8238 19.6166 22.7417 19.5369L20.3462 17.2176V11.5728C20.3462 11.3455 20.253 11.1275 20.0871 10.9667C19.9212 10.806 19.6962 10.7157 19.4615 10.7157H17.6923C17.4577 10.7157 17.2327 10.806 17.0668 10.9667C16.9009 11.1275 16.8077 11.3455 16.8077 11.5728V13.7892L12.1263 9.2518C12.0441 9.17198 11.9465 9.10866 11.839 9.06545C11.7316 9.02224 11.6164 9 11.5 9C11.3836 9 11.2684 9.02224 11.161 9.06545C11.0535 9.10866 10.9559 9.17198 10.8737 9.2518L0.258309 19.5369C0.176214 19.6166 0.111145 19.7112 0.0668224 19.8154C0.0225001 19.9195 -0.000206203 20.031 1.41095e-06 20.1437V32.1429C1.41095e-06 32.3702 0.0932017 32.5882 0.259099 32.749C0.424997 32.9097 0.650002 33 0.884617 33H7.96154C8.19615 33 8.42116 32.9097 8.58706 32.749C8.75295 32.5882 8.84616 32.3702 8.84616 32.1429Z" fill="#FDFDFD"/>
<path d="M37.104 29.952C37.024 29.984 36.904 30.016 36.744 30.048C36.584 30.096 36.408 30.12 36.216 30.12C35.512 30.12 35.16 29.824 35.16 29.232V15.456C35.24 15.424 35.36 15.392 35.52 15.36C35.696 15.312 35.88 15.288 36.072 15.288C36.76 15.288 37.104 15.584 37.104 16.176V29.952ZM50.4413 22.776C50.4413 21.88 50.1853 21.224 49.6732 20.808C49.1773 20.392 48.5053 20.184 47.6573 20.184C47.0173 20.184 46.4492 20.264 45.9532 20.424C45.4572 20.584 45.0332 20.768 44.6812 20.976V29.952C44.6012 29.984 44.4812 30.016 44.3212 30.048C44.1612 30.096 43.9853 30.12 43.7933 30.12C43.1052 30.12 42.7612 29.832 42.7612 29.256V21.072C42.7612 20.736 42.8252 20.464 42.9532 20.256C43.0972 20.032 43.3372 19.816 43.6732 19.608C44.0893 19.352 44.6413 19.12 45.3293 18.912C46.0173 18.704 46.7933 18.6 47.6573 18.6C49.1133 18.6 50.2573 18.928 51.0893 19.584C51.9373 20.24 52.3613 21.272 52.3613 22.68V29.952C52.2813 29.984 52.1533 30.016 51.9773 30.048C51.8173 30.096 51.6493 30.12 51.4733 30.12C50.7853 30.12 50.4413 29.832 50.4413 29.256V22.776ZM59.6766 29.952C59.5966 29.984 59.4766 30.016 59.3166 30.048C59.1566 30.096 58.9806 30.12 58.7886 30.12C58.1006 30.12 57.7566 29.832 57.7566 29.256V18.96C57.8366 18.928 57.9566 18.896 58.1166 18.864C58.2926 18.816 58.4766 18.792 58.6686 18.792C59.3406 18.792 59.6766 19.088 59.6766 19.68V29.952ZM57.4686 15.408C57.4686 15.072 57.5806 14.792 57.8046 14.568C58.0446 14.328 58.3486 14.208 58.7166 14.208C59.0846 14.208 59.3806 14.328 59.6046 14.568C59.8286 14.792 59.9406 15.072 59.9406 15.408C59.9406 15.744 59.8286 16.032 59.6046 16.272C59.3806 16.496 59.0846 16.608 58.7166 16.608C58.3486 16.608 58.0446 16.496 57.8046 16.272C57.5806 16.032 57.4686 15.744 57.4686 15.408ZM70.2416 20.208C69.6976 20.208 69.1936 20.304 68.7296 20.496C68.2656 20.672 67.8656 20.944 67.5296 21.312C67.1936 21.664 66.9296 22.112 66.7376 22.656C66.5456 23.184 66.4496 23.792 66.4496 24.48C66.4496 25.856 66.7936 26.912 67.4816 27.648C68.1696 28.368 69.0896 28.728 70.2416 28.728C70.9136 28.728 71.4736 28.64 71.9216 28.464C72.3696 28.272 72.7696 28.056 73.1216 27.816C73.2976 27.912 73.4416 28.032 73.5536 28.176C73.6656 28.32 73.7216 28.496 73.7216 28.704C73.7216 28.928 73.6336 29.136 73.4576 29.328C73.2816 29.52 73.0336 29.688 72.7136 29.832C72.4096 29.976 72.0416 30.088 71.6096 30.168C71.1936 30.264 70.7376 30.312 70.2416 30.312C69.4096 30.312 68.6416 30.192 67.9376 29.952C67.2336 29.712 66.6256 29.352 66.1136 28.872C65.6016 28.392 65.2016 27.792 64.9136 27.072C64.6256 26.336 64.4816 25.472 64.4816 24.48C64.4816 23.504 64.6336 22.656 64.9376 21.936C65.2416 21.2 65.6496 20.584 66.1616 20.088C66.6736 19.592 67.2736 19.224 67.9616 18.984C68.6656 18.728 69.4096 18.6 70.1936 18.6C70.6896 18.6 71.1456 18.648 71.5616 18.744C71.9936 18.824 72.3616 18.944 72.6656 19.104C72.9696 19.264 73.2016 19.448 73.3616 19.656C73.5376 19.848 73.6256 20.048 73.6256 20.256C73.6256 20.448 73.5696 20.616 73.4576 20.76C73.3456 20.904 73.2016 21.016 73.0256 21.096C72.6736 20.856 72.2896 20.648 71.8736 20.472C71.4576 20.296 70.9136 20.208 70.2416 20.208ZM80.2866 29.952C80.2066 29.984 80.0866 30.016 79.9266 30.048C79.7666 30.096 79.5906 30.12 79.3986 30.12C78.7106 30.12 78.3666 29.832 78.3666 29.256V18.96C78.4466 18.928 78.5666 18.896 78.7266 18.864C78.9026 18.816 79.0866 18.792 79.2786 18.792C79.9506 18.792 80.2866 19.088 80.2866 19.68V29.952ZM78.0786 15.408C78.0786 15.072 78.1906 14.792 78.4146 14.568C78.6546 14.328 78.9586 14.208 79.3266 14.208C79.6946 14.208 79.9906 14.328 80.2146 14.568C80.4386 14.792 80.5506 15.072 80.5506 15.408C80.5506 15.744 80.4386 16.032 80.2146 16.272C79.9906 16.496 79.6946 16.608 79.3266 16.608C78.9586 16.608 78.6546 16.496 78.4146 16.272C78.1906 16.032 78.0786 15.744 78.0786 15.408ZM96.0116 24.456C96.0116 25.352 95.8836 26.16 95.6276 26.88C95.3716 27.6 95.0036 28.216 94.5236 28.728C94.0596 29.24 93.4916 29.632 92.8196 29.904C92.1476 30.176 91.3956 30.312 90.5636 30.312C89.7316 30.312 88.9796 30.176 88.3076 29.904C87.6356 29.632 87.0596 29.24 86.5796 28.728C86.0996 28.216 85.7316 27.6 85.4756 26.88C85.2196 26.16 85.0916 25.352 85.0916 24.456C85.0916 23.56 85.2196 22.752 85.4756 22.032C85.7476 21.312 86.1236 20.696 86.6036 20.184C87.0836 19.672 87.6596 19.28 88.3316 19.008C89.0036 18.736 89.7476 18.6 90.5636 18.6C91.3796 18.6 92.1236 18.736 92.7956 19.008C93.4676 19.28 94.0356 19.672 94.4996 20.184C94.9796 20.696 95.3476 21.312 95.6036 22.032C95.8756 22.752 96.0116 23.56 96.0116 24.456ZM90.5636 20.184C89.4756 20.184 88.6196 20.56 87.9956 21.312C87.3716 22.064 87.0596 23.112 87.0596 24.456C87.0596 25.816 87.3636 26.872 87.9716 27.624C88.5956 28.36 89.4596 28.728 90.5636 28.728C91.6676 28.728 92.5236 28.352 93.1316 27.6C93.7396 26.848 94.0436 25.8 94.0436 24.456C94.0436 23.112 93.7316 22.064 93.1076 21.312C92.4996 20.56 91.6516 20.184 90.5636 20.184Z" fill="white"/>
</svg>
