<svg width="111" height="33" viewBox="0 0 111 33" fill="none" xmlns="http://www.w3.org/2000/svg">
<path d="M11 11C11.3647 11 11.7144 11.1449 11.9723 11.4027C12.2301 11.6606 12.375 12.0103 12.375 12.375V20.625H20.625C20.9897 20.625 21.3394 20.7699 21.5973 21.0277C21.8551 21.2856 22 21.6353 22 22C22 22.3647 21.8551 22.7144 21.5973 22.9723C21.3394 23.2301 20.9897 23.375 20.625 23.375H12.375V31.625C12.375 31.9897 12.2301 32.3394 11.9723 32.5973C11.7144 32.8551 11.3647 33 11 33C10.6353 33 10.2856 32.8551 10.0277 32.5973C9.76987 32.3394 9.625 31.9897 9.625 31.625V23.375H1.375C1.01033 23.375 0.660591 23.2301 0.402728 22.9723C0.144866 22.7144 0 22.3647 0 22C0 21.6353 0.144866 21.2856 0.402728 21.0277C0.660591 20.7699 1.01033 20.625 1.375 20.625H9.625V12.375C9.625 12.0103 9.76987 11.6606 10.0277 11.4027C10.2856 11.1449 10.6353 11 11 11Z" fill="white"/>
<path d="M36.44 26.208C36.328 26.288 36.176 26.36 35.984 26.424C35.808 26.488 35.608 26.52 35.384 26.52C35.128 26.52 34.896 26.48 34.688 26.4C34.496 26.32 34.36 26.192 34.28 26.016C33.416 24.224 32.672 22.584 32.048 21.096C31.424 19.608 30.92 18.376 30.536 17.4H30.44C30.392 18.6 30.336 19.72 30.272 20.76C30.224 21.784 30.168 22.792 30.104 23.784C30.04 24.76 29.976 25.752 29.912 26.76C29.848 27.768 29.784 28.848 29.72 30C29.624 30.032 29.496 30.064 29.336 30.096C29.192 30.128 29.032 30.144 28.856 30.144C28.504 30.144 28.256 30.072 28.112 29.928C27.968 29.784 27.896 29.576 27.896 29.304C27.896 29.144 27.904 28.8 27.92 28.272C27.952 27.744 27.992 27.104 28.04 26.352C28.088 25.6 28.136 24.768 28.184 23.856C28.248 22.944 28.312 22.016 28.376 21.072C28.456 20.128 28.528 19.2 28.592 18.288C28.672 17.376 28.744 16.544 28.808 15.792C28.936 15.68 29.12 15.576 29.36 15.48C29.6 15.384 29.872 15.336 30.176 15.336C30.912 15.336 31.424 15.632 31.712 16.224C32.016 16.848 32.32 17.512 32.624 18.216C32.944 18.904 33.256 19.608 33.56 20.328C33.88 21.048 34.184 21.76 34.472 22.464C34.776 23.168 35.064 23.84 35.336 24.48H35.432C35.784 23.632 36.136 22.8 36.488 21.984C36.84 21.152 37.184 20.352 37.52 19.584C37.856 18.816 38.176 18.096 38.48 17.424C38.784 16.752 39.056 16.136 39.296 15.576C39.44 15.496 39.624 15.44 39.848 15.408C40.072 15.36 40.28 15.336 40.472 15.336C41.224 15.336 41.656 15.592 41.768 16.104C41.832 16.392 41.904 16.872 41.984 17.544C42.064 18.2 42.144 18.96 42.224 19.824C42.304 20.688 42.376 21.616 42.44 22.608C42.52 23.6 42.592 24.56 42.656 25.488C42.72 26.4 42.776 27.248 42.824 28.032C42.872 28.8 42.912 29.408 42.944 29.856C42.656 30.048 42.32 30.144 41.936 30.144C41.696 30.144 41.48 30.088 41.288 29.976C41.112 29.848 41.008 29.624 40.976 29.304C40.896 28.136 40.824 26.976 40.76 25.824C40.696 24.672 40.632 23.576 40.568 22.536C40.52 21.496 40.472 20.544 40.424 19.68C40.376 18.8 40.336 18.056 40.304 17.448H40.208C40.032 17.896 39.824 18.4 39.584 18.96C39.36 19.52 39.088 20.152 38.768 20.856C38.464 21.56 38.12 22.36 37.736 23.256C37.352 24.136 36.92 25.12 36.44 26.208ZM50.2466 29.952C50.1666 29.984 50.0466 30.016 49.8866 30.048C49.7266 30.096 49.5506 30.12 49.3586 30.12C48.6706 30.12 48.3266 29.832 48.3266 29.256V18.96C48.4066 18.928 48.5266 18.896 48.6866 18.864C48.8626 18.816 49.0466 18.792 49.2386 18.792C49.9106 18.792 50.2466 19.088 50.2466 19.68V29.952ZM48.0386 15.408C48.0386 15.072 48.1506 14.792 48.3746 14.568C48.6146 14.328 48.9186 14.208 49.2866 14.208C49.6546 14.208 49.9506 14.328 50.1746 14.568C50.3986 14.792 50.5106 15.072 50.5106 15.408C50.5106 15.744 50.3986 16.032 50.1746 16.272C49.9506 16.496 49.6546 16.608 49.2866 16.608C48.9186 16.608 48.6146 16.496 48.3746 16.272C48.1506 16.032 48.0386 15.744 48.0386 15.408ZM64.2723 29.952C64.1923 29.984 64.0723 30.016 63.9123 30.048C63.7523 30.096 63.5763 30.12 63.3843 30.12C62.6963 30.12 62.3523 29.832 62.3523 29.256V14.448C62.4323 14.416 62.5523 14.384 62.7123 14.352C62.8883 14.304 63.0643 14.28 63.2403 14.28C63.9283 14.28 64.2723 14.568 64.2723 15.144V29.952ZM71.8334 29.952C71.7534 29.984 71.6334 30.016 71.4734 30.048C71.3134 30.096 71.1374 30.12 70.9454 30.12C70.2574 30.12 69.9134 29.832 69.9134 29.256V18.96C69.9934 18.928 70.1134 18.896 70.2734 18.864C70.4494 18.816 70.6334 18.792 70.8254 18.792C71.4974 18.792 71.8334 19.088 71.8334 19.68V29.952ZM69.6254 15.408C69.6254 15.072 69.7374 14.792 69.9614 14.568C70.2014 14.328 70.5054 14.208 70.8734 14.208C71.2414 14.208 71.5374 14.328 71.7614 14.568C71.9854 14.792 72.0974 15.072 72.0974 15.408C72.0974 15.744 71.9854 16.032 71.7614 16.272C71.5374 16.496 71.2414 16.608 70.8734 16.608C70.5054 16.608 70.2014 16.496 69.9614 16.272C69.7374 16.032 69.6254 15.744 69.6254 15.408ZM85.0865 27.048C85.0865 28.072 84.7105 28.872 83.9585 29.448C83.2065 30.024 82.1185 30.312 80.6945 30.312C80.0865 30.312 79.5265 30.256 79.0145 30.144C78.5025 30.048 78.0625 29.92 77.6945 29.76C77.3425 29.584 77.0625 29.392 76.8545 29.184C76.6625 28.96 76.5665 28.736 76.5665 28.512C76.5665 28.32 76.6145 28.136 76.7105 27.96C76.8225 27.784 76.9825 27.632 77.1905 27.504C77.6225 27.824 78.1265 28.112 78.7025 28.368C79.2785 28.608 79.9345 28.728 80.6705 28.728C82.3345 28.728 83.1665 28.168 83.1665 27.048C83.1665 26.136 82.6145 25.544 81.5105 25.272L79.5185 24.744C78.5425 24.488 77.8305 24.12 77.3825 23.64C76.9345 23.144 76.7105 22.512 76.7105 21.744C76.7105 21.328 76.7905 20.928 76.9505 20.544C77.1265 20.16 77.3905 19.824 77.7425 19.536C78.0945 19.248 78.5265 19.024 79.0385 18.864C79.5665 18.688 80.1825 18.6 80.8865 18.6C82.0065 18.6 82.9105 18.768 83.5985 19.104C84.2865 19.424 84.6305 19.8 84.6305 20.232C84.6305 20.44 84.5745 20.624 84.4625 20.784C84.3665 20.944 84.2305 21.064 84.0545 21.144C83.7665 20.952 83.3585 20.744 82.8305 20.52C82.3025 20.296 81.6785 20.184 80.9585 20.184C80.2385 20.184 79.6625 20.32 79.2305 20.592C78.8145 20.864 78.6065 21.248 78.6065 21.744C78.6065 22.112 78.7265 22.424 78.9665 22.68C79.2065 22.936 79.6065 23.128 80.1665 23.256L81.8225 23.664C82.9105 23.936 83.7265 24.344 84.2705 24.888C84.8145 25.416 85.0865 26.136 85.0865 27.048ZM93.4689 30.312C92.3489 30.312 91.4369 30.064 90.7329 29.568C90.0449 29.072 89.7009 28.248 89.7009 27.096V15.696C89.7809 15.664 89.9009 15.632 90.0609 15.6C90.2369 15.552 90.4209 15.528 90.6129 15.528C91.2849 15.528 91.6209 15.816 91.6209 16.392V19.152H95.5569C95.6049 19.232 95.6529 19.344 95.7009 19.488C95.7489 19.616 95.7729 19.76 95.7729 19.92C95.7729 20.464 95.5329 20.736 95.0529 20.736H91.6209V26.976C91.6209 27.616 91.7969 28.072 92.1489 28.344C92.5169 28.6 93.0289 28.728 93.6849 28.728C93.9569 28.728 94.2609 28.68 94.5969 28.584C94.9329 28.488 95.2129 28.376 95.4369 28.248C95.5329 28.344 95.6209 28.464 95.7009 28.608C95.7809 28.752 95.8209 28.92 95.8209 29.112C95.8209 29.464 95.6129 29.752 95.1969 29.976C94.7809 30.2 94.2049 30.312 93.4689 30.312ZM104.387 28.752C105.059 28.752 105.611 28.688 106.043 28.56C106.491 28.416 106.811 28.28 107.003 28.152V24.672L104.027 24.984C103.195 25.064 102.579 25.256 102.179 25.56C101.779 25.848 101.579 26.28 101.579 26.856C101.579 27.464 101.811 27.936 102.275 28.272C102.739 28.592 103.443 28.752 104.387 28.752ZM104.363 18.6C105.755 18.6 106.859 18.912 107.675 19.536C108.491 20.16 108.899 21.144 108.899 22.488V28.176C108.899 28.528 108.827 28.8 108.683 28.992C108.555 29.168 108.355 29.336 108.083 29.496C107.699 29.72 107.187 29.912 106.547 30.072C105.923 30.248 105.203 30.336 104.387 30.336C102.883 30.336 101.715 30.04 100.883 29.448C100.067 28.856 99.6592 28 99.6592 26.88C99.6592 25.824 100.003 25.032 100.691 24.504C101.379 23.96 102.347 23.624 103.595 23.496L107.003 23.16V22.488C107.003 21.688 106.763 21.104 106.283 20.736C105.803 20.368 105.155 20.184 104.339 20.184C103.667 20.184 103.035 20.28 102.443 20.472C101.851 20.664 101.323 20.88 100.859 21.12C100.731 21.008 100.611 20.88 100.499 20.736C100.403 20.592 100.355 20.432 100.355 20.256C100.355 20.032 100.411 19.848 100.523 19.704C100.635 19.56 100.811 19.424 101.051 19.296C101.483 19.072 101.979 18.904 102.539 18.792C103.099 18.664 103.707 18.6 104.363 18.6Z" fill="white"/>
</svg>
