<svg width="112" height="32" viewBox="0 0 112 32" fill="none" xmlns="http://www.w3.org/2000/svg">
<path d="M18.3476 22.8077C19.8605 20.6604 20.5381 17.998 20.2449 15.3533C19.9516 12.7086 18.7092 10.2766 16.766 8.54384C14.8229 6.81107 12.3224 5.90534 9.76484 6.00784C7.20726 6.11034 4.7812 7.21353 2.97202 9.09668C1.16285 10.9798 0.103978 13.5041 0.00725994 16.1644C-0.089458 18.8247 0.783107 21.425 2.45039 23.4449C4.11766 25.4648 6.4567 26.7554 8.99953 27.0585C11.5424 27.3616 14.1015 26.6549 16.1649 25.0797H16.1633C16.2102 25.1447 16.2602 25.2065 16.3164 25.2666L22.3318 31.5235C22.6248 31.8284 23.0222 31.9998 23.4367 32C23.8512 32.0002 24.2487 31.829 24.5419 31.5243C24.8351 31.2196 24.9999 30.8062 25 30.3751C25.0001 29.944 24.8356 29.5305 24.5427 29.2255L18.5273 22.9686C18.4714 22.9098 18.4113 22.8555 18.3476 22.8061V22.8077ZM18.7507 16.5606C18.7507 17.7344 18.5284 18.8967 18.0966 19.9812C17.6647 21.0656 17.0317 22.051 16.2337 22.881C15.4358 23.711 14.4884 24.3694 13.4458 24.8186C12.4032 25.2678 11.2858 25.499 10.1573 25.499C9.02877 25.499 7.91131 25.2678 6.86871 24.8186C5.82611 24.3694 4.87877 23.711 4.0808 22.881C3.28283 22.051 2.64984 21.0656 2.21798 19.9812C1.78612 18.8967 1.56384 17.7344 1.56384 16.5606C1.56384 14.19 2.46922 11.9164 4.0808 10.2402C5.69238 8.56388 7.87815 7.62216 10.1573 7.62216C12.4364 7.62216 14.6222 8.56388 16.2337 10.2402C17.8453 11.9164 18.7507 14.19 18.7507 16.5606Z" fill="white"/>
<path d="M44.384 19.08C44.384 19.768 44.216 20.408 43.88 21C43.56 21.576 43.016 22.024 42.248 22.344C43.16 22.648 43.84 23.128 44.288 23.784C44.736 24.424 44.96 25.152 44.96 25.968C44.96 27.424 44.432 28.504 43.376 29.208C42.336 29.912 40.848 30.264 38.912 30.264C38.24 30.264 37.584 30.232 36.944 30.168C36.32 30.12 35.72 30.016 35.144 29.856C34.472 29.664 34.136 29.296 34.136 28.752V16.464C34.136 16 34.4 15.696 34.928 15.552C35.472 15.392 36.048 15.288 36.656 15.24C37.264 15.176 37.928 15.144 38.648 15.144C40.456 15.144 41.864 15.464 42.872 16.104C43.88 16.744 44.384 17.736 44.384 19.08ZM36.056 23.208V28.392C36.44 28.472 36.88 28.536 37.376 28.584C37.888 28.632 38.4 28.656 38.912 28.656C40.24 28.656 41.248 28.44 41.936 28.008C42.624 27.56 42.968 26.864 42.968 25.92C42.968 25.088 42.656 24.432 42.032 23.952C41.424 23.456 40.52 23.208 39.32 23.208H36.056ZM36.056 21.624H39.32C40.328 21.624 41.088 21.4 41.6 20.952C42.128 20.504 42.392 19.896 42.392 19.128C42.392 17.544 41.144 16.752 38.648 16.752C38.088 16.752 37.6 16.776 37.184 16.824C36.784 16.856 36.408 16.904 36.056 16.968V21.624ZM49.73 18.96C49.81 18.928 49.93 18.896 50.09 18.864C50.266 18.816 50.45 18.792 50.642 18.792C51.314 18.792 51.65 19.088 51.65 19.68V25.848C51.65 26.888 51.922 27.632 52.466 28.08C53.01 28.512 53.762 28.728 54.722 28.728C55.362 28.728 55.906 28.664 56.354 28.536C56.802 28.392 57.154 28.248 57.41 28.104V18.96C57.49 18.928 57.61 18.896 57.77 18.864C57.946 18.816 58.122 18.792 58.298 18.792C58.986 18.792 59.33 19.088 59.33 19.68V28.032C59.33 28.368 59.282 28.64 59.186 28.848C59.106 29.04 58.898 29.232 58.562 29.424C58.194 29.632 57.682 29.832 57.026 30.024C56.386 30.216 55.61 30.312 54.698 30.312C53.098 30.312 51.866 29.96 51.002 29.256C50.154 28.552 49.73 27.448 49.73 25.944V18.96ZM72.4293 27.048C72.4293 28.072 72.0533 28.872 71.3013 29.448C70.5493 30.024 69.4613 30.312 68.0373 30.312C67.4293 30.312 66.8693 30.256 66.3573 30.144C65.8453 30.048 65.4053 29.92 65.0373 29.76C64.6853 29.584 64.4053 29.392 64.1973 29.184C64.0053 28.96 63.9093 28.736 63.9093 28.512C63.9093 28.32 63.9573 28.136 64.0533 27.96C64.1653 27.784 64.3253 27.632 64.5333 27.504C64.9653 27.824 65.4693 28.112 66.0453 28.368C66.6213 28.608 67.2773 28.728 68.0133 28.728C69.6773 28.728 70.5093 28.168 70.5093 27.048C70.5093 26.136 69.9573 25.544 68.8533 25.272L66.8613 24.744C65.8853 24.488 65.1733 24.12 64.7253 23.64C64.2773 23.144 64.0533 22.512 64.0533 21.744C64.0533 21.328 64.1333 20.928 64.2933 20.544C64.4693 20.16 64.7333 19.824 65.0853 19.536C65.4373 19.248 65.8693 19.024 66.3813 18.864C66.9093 18.688 67.5253 18.6 68.2293 18.6C69.3493 18.6 70.2533 18.768 70.9413 19.104C71.6293 19.424 71.9733 19.8 71.9733 20.232C71.9733 20.44 71.9173 20.624 71.8053 20.784C71.7093 20.944 71.5733 21.064 71.3973 21.144C71.1093 20.952 70.7013 20.744 70.1733 20.52C69.6453 20.296 69.0213 20.184 68.3013 20.184C67.5813 20.184 67.0053 20.32 66.5733 20.592C66.1573 20.864 65.9493 21.248 65.9493 21.744C65.9493 22.112 66.0693 22.424 66.3093 22.68C66.5493 22.936 66.9493 23.128 67.5093 23.256L69.1653 23.664C70.2533 23.936 71.0693 24.344 71.6133 24.888C72.1573 25.416 72.4293 26.136 72.4293 27.048ZM82.2729 20.208C81.7289 20.208 81.2249 20.304 80.7609 20.496C80.2969 20.672 79.8969 20.944 79.5609 21.312C79.2249 21.664 78.9609 22.112 78.7689 22.656C78.5769 23.184 78.4809 23.792 78.4809 24.48C78.4809 25.856 78.8249 26.912 79.5129 27.648C80.2009 28.368 81.1209 28.728 82.2729 28.728C82.9449 28.728 83.5049 28.64 83.9529 28.464C84.4009 28.272 84.8009 28.056 85.1529 27.816C85.3289 27.912 85.4729 28.032 85.5849 28.176C85.6969 28.32 85.7529 28.496 85.7529 28.704C85.7529 28.928 85.6649 29.136 85.4889 29.328C85.3129 29.52 85.0649 29.688 84.7449 29.832C84.4409 29.976 84.0729 30.088 83.6409 30.168C83.2249 30.264 82.7689 30.312 82.2729 30.312C81.4409 30.312 80.6729 30.192 79.9689 29.952C79.2649 29.712 78.6569 29.352 78.1449 28.872C77.6329 28.392 77.2329 27.792 76.9449 27.072C76.6569 26.336 76.5129 25.472 76.5129 24.48C76.5129 23.504 76.6649 22.656 76.9689 21.936C77.2729 21.2 77.6809 20.584 78.1929 20.088C78.7049 19.592 79.3049 19.224 79.9929 18.984C80.6969 18.728 81.4409 18.6 82.2249 18.6C82.7209 18.6 83.1769 18.648 83.5929 18.744C84.0249 18.824 84.3929 18.944 84.6969 19.104C85.0009 19.264 85.2329 19.448 85.3929 19.656C85.5689 19.848 85.6569 20.048 85.6569 20.256C85.6569 20.448 85.6009 20.616 85.4889 20.76C85.3769 20.904 85.2329 21.016 85.0569 21.096C84.7049 20.856 84.3209 20.648 83.9049 20.472C83.4889 20.296 82.9449 20.208 82.2729 20.208ZM94.3316 28.752C95.0036 28.752 95.5556 28.688 95.9876 28.56C96.4356 28.416 96.7556 28.28 96.9476 28.152V24.672L93.9716 24.984C93.1396 25.064 92.5236 25.256 92.1236 25.56C91.7236 25.848 91.5236 26.28 91.5236 26.856C91.5236 27.464 91.7556 27.936 92.2196 28.272C92.6836 28.592 93.3876 28.752 94.3316 28.752ZM94.3076 18.6C95.6996 18.6 96.8036 18.912 97.6196 19.536C98.4356 20.16 98.8436 21.144 98.8436 22.488V28.176C98.8436 28.528 98.7716 28.8 98.6276 28.992C98.4996 29.168 98.2996 29.336 98.0276 29.496C97.6436 29.72 97.1316 29.912 96.4916 30.072C95.8676 30.248 95.1476 30.336 94.3316 30.336C92.8276 30.336 91.6596 30.04 90.8276 29.448C90.0116 28.856 89.6036 28 89.6036 26.88C89.6036 25.824 89.9476 25.032 90.6356 24.504C91.3236 23.96 92.2916 23.624 93.5396 23.496L96.9476 23.16V22.488C96.9476 21.688 96.7076 21.104 96.2276 20.736C95.7476 20.368 95.0996 20.184 94.2836 20.184C93.6116 20.184 92.9796 20.28 92.3876 20.472C91.7956 20.664 91.2676 20.88 90.8036 21.12C90.6756 21.008 90.5556 20.88 90.4436 20.736C90.3476 20.592 90.2996 20.432 90.2996 20.256C90.2996 20.032 90.3556 19.848 90.4676 19.704C90.5796 19.56 90.7556 19.424 90.9956 19.296C91.4276 19.072 91.9236 18.904 92.4836 18.792C93.0436 18.664 93.6516 18.6 94.3076 18.6ZM105.948 29.952C105.868 29.984 105.748 30.016 105.588 30.048C105.428 30.096 105.252 30.12 105.06 30.12C104.372 30.12 104.028 29.832 104.028 29.256V21.12C104.028 20.752 104.092 20.464 104.22 20.256C104.364 20.032 104.596 19.816 104.916 19.608C105.332 19.336 105.892 19.104 106.596 18.912C107.316 18.704 108.124 18.6 109.02 18.6C110.3 18.6 110.94 18.92 110.94 19.56C110.94 19.72 110.916 19.872 110.868 20.016C110.82 20.144 110.756 20.256 110.676 20.352C110.516 20.32 110.308 20.288 110.052 20.256C109.796 20.224 109.54 20.208 109.284 20.208C108.548 20.208 107.9 20.288 107.34 20.448C106.78 20.592 106.316 20.768 105.948 20.976V29.952Z" fill="white"/>
</svg>
