<svg width="269" height="60" viewBox="0 0 269 60" fill="none" xmlns="http://www.w3.org/2000/svg">
<path d="M40.8695 22.6087C40.8695 25.6068 39.7243 28.4821 37.6859 30.6021C35.6474 32.7221 32.8827 33.913 29.9999 33.913C27.1171 33.913 24.3524 32.7221 22.314 30.6021C20.2756 28.4821 19.1304 25.6068 19.1304 22.6087C19.1304 19.6106 20.2756 16.7353 22.314 14.6153C24.3524 12.4953 27.1171 11.3044 29.9999 11.3044C32.8827 11.3044 35.6474 12.4953 37.6859 14.6153C39.7243 16.7353 40.8695 19.6106 40.8695 22.6087V22.6087Z" fill="white"/>
<path fill-rule="evenodd" clip-rule="evenodd" d="M0 30C0 22.0435 3.16071 14.4129 8.7868 8.7868C14.4129 3.16071 22.0435 0 30 0C37.9565 0 45.5871 3.16071 51.2132 8.7868C56.8393 14.4129 60 22.0435 60 30C60 37.9565 56.8393 45.5871 51.2132 51.2132C45.5871 56.8393 37.9565 60 30 60C22.0435 60 14.4129 56.8393 8.7868 51.2132C3.16071 45.5871 0 37.9565 0 30ZM30 3.75C25.0567 3.75026 20.2139 5.14636 16.029 7.7776C11.8441 10.4088 8.48731 14.1683 6.34487 18.6232C4.20242 23.0782 3.36145 28.0475 3.91874 32.9593C4.47604 37.8712 6.40895 42.5258 9.495 46.3875C12.1575 42.0975 18.0188 37.5 30 37.5C41.9813 37.5 47.8388 42.0938 50.505 46.3875C53.5911 42.5258 55.524 37.8712 56.0813 32.9593C56.6386 28.0475 55.7976 23.0782 53.6551 18.6232C51.5127 14.1683 48.1559 10.4088 43.971 7.7776C39.7861 5.14636 34.9433 3.75026 30 3.75Z" fill="white"/>
<path d="M78.104 42.952C78.024 42.984 77.904 43.016 77.744 43.048C77.584 43.096 77.408 43.12 77.216 43.12C76.512 43.12 76.16 42.824 76.16 42.232V28.456C76.24 28.424 76.36 28.392 76.52 28.36C76.696 28.312 76.88 28.288 77.072 28.288C77.76 28.288 78.104 28.584 78.104 29.176V42.952ZM91.4413 35.776C91.4413 34.88 91.1853 34.224 90.6732 33.808C90.1773 33.392 89.5053 33.184 88.6573 33.184C88.0173 33.184 87.4492 33.264 86.9532 33.424C86.4572 33.584 86.0332 33.768 85.6812 33.976V42.952C85.6012 42.984 85.4812 43.016 85.3212 43.048C85.1612 43.096 84.9853 43.12 84.7933 43.12C84.1052 43.12 83.7612 42.832 83.7612 42.256V34.072C83.7612 33.736 83.8252 33.464 83.9532 33.256C84.0972 33.032 84.3372 32.816 84.6732 32.608C85.0893 32.352 85.6413 32.12 86.3293 31.912C87.0173 31.704 87.7933 31.6 88.6573 31.6C90.1133 31.6 91.2573 31.928 92.0893 32.584C92.9373 33.24 93.3613 34.272 93.3613 35.68V42.952C93.2813 42.984 93.1533 43.016 92.9773 43.048C92.8173 43.096 92.6493 43.12 92.4733 43.12C91.7853 43.12 91.4413 42.832 91.4413 42.256V35.776ZM100.677 42.952C100.597 42.984 100.477 43.016 100.317 43.048C100.157 43.096 99.9806 43.12 99.7886 43.12C99.1006 43.12 98.7566 42.832 98.7566 42.256V31.96C98.8366 31.928 98.9566 31.896 99.1166 31.864C99.2926 31.816 99.4766 31.792 99.6686 31.792C100.341 31.792 100.677 32.088 100.677 32.68V42.952ZM98.4686 28.408C98.4686 28.072 98.5806 27.792 98.8046 27.568C99.0446 27.328 99.3486 27.208 99.7166 27.208C100.085 27.208 100.381 27.328 100.605 27.568C100.829 27.792 100.941 28.072 100.941 28.408C100.941 28.744 100.829 29.032 100.605 29.272C100.381 29.496 100.085 29.608 99.7166 29.608C99.3486 29.608 99.0446 29.496 98.8046 29.272C98.5806 29.032 98.4686 28.744 98.4686 28.408ZM111.242 33.208C110.698 33.208 110.194 33.304 109.73 33.496C109.266 33.672 108.866 33.944 108.53 34.312C108.194 34.664 107.93 35.112 107.738 35.656C107.546 36.184 107.45 36.792 107.45 37.48C107.45 38.856 107.794 39.912 108.482 40.648C109.17 41.368 110.09 41.728 111.242 41.728C111.914 41.728 112.474 41.64 112.922 41.464C113.37 41.272 113.77 41.056 114.122 40.816C114.298 40.912 114.442 41.032 114.554 41.176C114.666 41.32 114.722 41.496 114.722 41.704C114.722 41.928 114.634 42.136 114.458 42.328C114.282 42.52 114.034 42.688 113.714 42.832C113.41 42.976 113.042 43.088 112.61 43.168C112.194 43.264 111.738 43.312 111.242 43.312C110.41 43.312 109.642 43.192 108.938 42.952C108.234 42.712 107.626 42.352 107.114 41.872C106.602 41.392 106.202 40.792 105.914 40.072C105.626 39.336 105.482 38.472 105.482 37.48C105.482 36.504 105.634 35.656 105.938 34.936C106.242 34.2 106.65 33.584 107.162 33.088C107.674 32.592 108.274 32.224 108.962 31.984C109.666 31.728 110.41 31.6 111.194 31.6C111.69 31.6 112.146 31.648 112.562 31.744C112.994 31.824 113.362 31.944 113.666 32.104C113.97 32.264 114.202 32.448 114.362 32.656C114.538 32.848 114.626 33.048 114.626 33.256C114.626 33.448 114.57 33.616 114.458 33.76C114.346 33.904 114.202 34.016 114.026 34.096C113.674 33.856 113.29 33.648 112.874 33.472C112.458 33.296 111.914 33.208 111.242 33.208ZM121.287 42.952C121.207 42.984 121.087 43.016 120.927 43.048C120.767 43.096 120.591 43.12 120.399 43.12C119.711 43.12 119.367 42.832 119.367 42.256V31.96C119.447 31.928 119.567 31.896 119.727 31.864C119.903 31.816 120.087 31.792 120.279 31.792C120.951 31.792 121.287 32.088 121.287 32.68V42.952ZM119.079 28.408C119.079 28.072 119.191 27.792 119.415 27.568C119.655 27.328 119.959 27.208 120.327 27.208C120.695 27.208 120.991 27.328 121.215 27.568C121.439 27.792 121.551 28.072 121.551 28.408C121.551 28.744 121.439 29.032 121.215 29.272C120.991 29.496 120.695 29.608 120.327 29.608C119.959 29.608 119.655 29.496 119.415 29.272C119.191 29.032 119.079 28.744 119.079 28.408ZM130.676 41.752C131.348 41.752 131.9 41.688 132.332 41.56C132.78 41.416 133.1 41.28 133.292 41.152V37.672L130.316 37.984C129.484 38.064 128.868 38.256 128.468 38.56C128.068 38.848 127.868 39.28 127.868 39.856C127.868 40.464 128.1 40.936 128.564 41.272C129.028 41.592 129.732 41.752 130.676 41.752ZM130.652 31.6C132.044 31.6 133.148 31.912 133.964 32.536C134.78 33.16 135.188 34.144 135.188 35.488V41.176C135.188 41.528 135.116 41.8 134.972 41.992C134.844 42.168 134.644 42.336 134.372 42.496C133.988 42.72 133.476 42.912 132.836 43.072C132.212 43.248 131.492 43.336 130.676 43.336C129.172 43.336 128.004 43.04 127.172 42.448C126.356 41.856 125.948 41 125.948 39.88C125.948 38.824 126.292 38.032 126.98 37.504C127.668 36.96 128.636 36.624 129.884 36.496L133.292 36.16V35.488C133.292 34.688 133.052 34.104 132.572 33.736C132.092 33.368 131.444 33.184 130.628 33.184C129.956 33.184 129.324 33.28 128.732 33.472C128.14 33.664 127.612 33.88 127.148 34.12C127.02 34.008 126.9 33.88 126.788 33.736C126.692 33.592 126.644 33.432 126.644 33.256C126.644 33.032 126.7 32.848 126.812 32.704C126.924 32.56 127.1 32.424 127.34 32.296C127.772 32.072 128.268 31.904 128.828 31.792C129.388 31.664 129.996 31.6 130.652 31.6ZM142.292 42.952C142.212 42.984 142.092 43.016 141.932 43.048C141.772 43.096 141.596 43.12 141.404 43.12C140.716 43.12 140.372 42.832 140.372 42.256V34.12C140.372 33.752 140.436 33.464 140.564 33.256C140.708 33.032 140.94 32.816 141.26 32.608C141.676 32.336 142.236 32.104 142.94 31.912C143.66 31.704 144.468 31.6 145.364 31.6C146.644 31.6 147.284 31.92 147.284 32.56C147.284 32.72 147.26 32.872 147.212 33.016C147.164 33.144 147.1 33.256 147.02 33.352C146.86 33.32 146.652 33.288 146.396 33.256C146.14 33.224 145.884 33.208 145.628 33.208C144.892 33.208 144.244 33.288 143.684 33.448C143.124 33.592 142.66 33.768 142.292 33.976V42.952ZM162.069 41.68C163.141 41.68 163.949 41.44 164.493 40.96C165.053 40.464 165.333 39.832 165.333 39.064C165.333 38.392 165.117 37.848 164.685 37.432C164.269 37.016 163.605 36.672 162.693 36.4L160.605 35.776C159.581 35.472 158.773 35.024 158.181 34.432C157.605 33.84 157.317 33.04 157.317 32.032C157.317 31.424 157.429 30.88 157.653 30.4C157.893 29.904 158.229 29.488 158.661 29.152C159.093 28.816 159.605 28.56 160.197 28.384C160.805 28.192 161.485 28.096 162.237 28.096C162.877 28.096 163.469 28.152 164.013 28.264C164.573 28.36 165.053 28.504 165.453 28.696C165.869 28.872 166.189 29.072 166.413 29.296C166.637 29.52 166.749 29.752 166.749 29.992C166.749 30.216 166.693 30.408 166.581 30.568C166.469 30.728 166.325 30.856 166.149 30.952C165.733 30.632 165.189 30.352 164.517 30.112C163.861 29.872 163.125 29.752 162.309 29.752C161.365 29.752 160.621 29.952 160.077 30.352C159.549 30.752 159.285 31.312 159.285 32.032C159.285 32.592 159.477 33.048 159.861 33.4C160.245 33.752 160.885 34.056 161.781 34.312L163.245 34.744C164.509 35.112 165.501 35.632 166.221 36.304C166.957 36.96 167.325 37.88 167.325 39.064C167.325 40.328 166.869 41.352 165.957 42.136C165.045 42.92 163.749 43.312 162.069 43.312C161.333 43.312 160.661 43.248 160.053 43.12C159.461 42.992 158.949 42.824 158.517 42.616C158.101 42.408 157.773 42.184 157.533 41.944C157.309 41.688 157.197 41.44 157.197 41.2C157.197 40.928 157.277 40.704 157.437 40.528C157.613 40.336 157.813 40.2 158.037 40.12C158.213 40.296 158.429 40.48 158.685 40.672C158.941 40.848 159.237 41.016 159.573 41.176C159.909 41.32 160.285 41.44 160.701 41.536C161.117 41.632 161.573 41.68 162.069 41.68ZM173.405 38.584C173.837 40.68 175.213 41.728 177.533 41.728C178.205 41.728 178.813 41.616 179.357 41.392C179.901 41.168 180.333 40.928 180.653 40.672C181.037 40.896 181.229 41.2 181.229 41.584C181.229 41.808 181.125 42.024 180.917 42.232C180.725 42.44 180.453 42.624 180.101 42.784C179.765 42.944 179.365 43.072 178.901 43.168C178.453 43.264 177.965 43.312 177.437 43.312C175.581 43.312 174.109 42.808 173.021 41.8C171.949 40.792 171.413 39.32 171.413 37.384C171.413 36.472 171.541 35.664 171.797 34.96C172.069 34.24 172.437 33.632 172.901 33.136C173.381 32.64 173.949 32.264 174.605 32.008C175.261 31.736 175.973 31.6 176.741 31.6C177.461 31.6 178.125 31.72 178.733 31.96C179.341 32.2 179.861 32.544 180.293 32.992C180.741 33.424 181.085 33.944 181.325 34.552C181.581 35.144 181.709 35.8 181.709 36.52C181.709 36.872 181.629 37.128 181.469 37.288C181.309 37.432 181.085 37.52 180.797 37.552L173.405 38.584ZM176.717 33.16C175.741 33.16 174.933 33.504 174.293 34.192C173.653 34.864 173.317 35.832 173.285 37.096L179.885 36.184C179.805 35.304 179.493 34.584 178.949 34.024C178.421 33.448 177.677 33.16 176.717 33.16ZM194.127 40.048C194.127 41.072 193.751 41.872 192.999 42.448C192.247 43.024 191.159 43.312 189.735 43.312C189.127 43.312 188.567 43.256 188.055 43.144C187.543 43.048 187.103 42.92 186.735 42.76C186.383 42.584 186.103 42.392 185.895 42.184C185.703 41.96 185.607 41.736 185.607 41.512C185.607 41.32 185.655 41.136 185.751 40.96C185.863 40.784 186.023 40.632 186.231 40.504C186.663 40.824 187.167 41.112 187.743 41.368C188.319 41.608 188.975 41.728 189.711 41.728C191.375 41.728 192.207 41.168 192.207 40.048C192.207 39.136 191.655 38.544 190.551 38.272L188.559 37.744C187.583 37.488 186.871 37.12 186.423 36.64C185.975 36.144 185.751 35.512 185.751 34.744C185.751 34.328 185.831 33.928 185.991 33.544C186.167 33.16 186.431 32.824 186.783 32.536C187.135 32.248 187.567 32.024 188.079 31.864C188.607 31.688 189.223 31.6 189.927 31.6C191.047 31.6 191.951 31.768 192.639 32.104C193.327 32.424 193.671 32.8 193.671 33.232C193.671 33.44 193.615 33.624 193.503 33.784C193.407 33.944 193.271 34.064 193.095 34.144C192.807 33.952 192.399 33.744 191.871 33.52C191.343 33.296 190.719 33.184 189.999 33.184C189.279 33.184 188.703 33.32 188.271 33.592C187.855 33.864 187.647 34.248 187.647 34.744C187.647 35.112 187.767 35.424 188.007 35.68C188.247 35.936 188.647 36.128 189.207 36.256L190.863 36.664C191.951 36.936 192.767 37.344 193.311 37.888C193.855 38.416 194.127 39.136 194.127 40.048ZM200.757 42.952C200.677 42.984 200.557 43.016 200.397 43.048C200.237 43.096 200.061 43.12 199.869 43.12C199.181 43.12 198.837 42.832 198.837 42.256V31.96C198.917 31.928 199.037 31.896 199.197 31.864C199.373 31.816 199.557 31.792 199.749 31.792C200.421 31.792 200.757 32.088 200.757 32.68V42.952ZM198.549 28.408C198.549 28.072 198.661 27.792 198.885 27.568C199.125 27.328 199.429 27.208 199.797 27.208C200.165 27.208 200.461 27.328 200.685 27.568C200.909 27.792 201.021 28.072 201.021 28.408C201.021 28.744 200.909 29.032 200.685 29.272C200.461 29.496 200.165 29.608 199.797 29.608C199.429 29.608 199.125 29.496 198.885 29.272C198.661 29.032 198.549 28.744 198.549 28.408ZM216.483 37.456C216.483 38.352 216.355 39.16 216.099 39.88C215.843 40.6 215.475 41.216 214.995 41.728C214.531 42.24 213.963 42.632 213.291 42.904C212.619 43.176 211.867 43.312 211.035 43.312C210.203 43.312 209.451 43.176 208.779 42.904C208.107 42.632 207.531 42.24 207.051 41.728C206.571 41.216 206.203 40.6 205.947 39.88C205.691 39.16 205.563 38.352 205.563 37.456C205.563 36.56 205.691 35.752 205.947 35.032C206.219 34.312 206.595 33.696 207.075 33.184C207.555 32.672 208.131 32.28 208.803 32.008C209.475 31.736 210.219 31.6 211.035 31.6C211.851 31.6 212.595 31.736 213.267 32.008C213.939 32.28 214.507 32.672 214.971 33.184C215.451 33.696 215.819 34.312 216.075 35.032C216.347 35.752 216.483 36.56 216.483 37.456ZM211.035 33.184C209.947 33.184 209.091 33.56 208.467 34.312C207.843 35.064 207.531 36.112 207.531 37.456C207.531 38.816 207.835 39.872 208.443 40.624C209.067 41.36 209.931 41.728 211.035 41.728C212.139 41.728 212.995 41.352 213.603 40.6C214.211 39.848 214.515 38.8 214.515 37.456C214.515 36.112 214.203 35.064 213.579 34.312C212.971 33.56 212.123 33.184 211.035 33.184ZM213.291 26.512C213.643 26.528 213.923 26.632 214.131 26.824C214.355 27 214.467 27.2 214.467 27.424C214.467 27.648 214.419 27.832 214.323 27.976C214.227 28.104 214.067 28.272 213.843 28.48L211.659 30.616C211.339 30.616 211.083 30.536 210.891 30.376C210.699 30.2 210.603 30.008 210.603 29.8C210.603 29.672 210.643 29.552 210.723 29.44C210.803 29.328 210.883 29.224 210.963 29.128L213.291 26.512ZM228.812 35.776C228.812 34.88 228.556 34.224 228.044 33.808C227.548 33.392 226.876 33.184 226.028 33.184C225.388 33.184 224.82 33.264 224.324 33.424C223.828 33.584 223.404 33.768 223.052 33.976V42.952C222.972 42.984 222.852 43.016 222.692 43.048C222.532 43.096 222.356 43.12 222.164 43.12C221.476 43.12 221.132 42.832 221.132 42.256V34.072C221.132 33.736 221.196 33.464 221.324 33.256C221.468 33.032 221.708 32.816 222.044 32.608C222.46 32.352 223.012 32.12 223.7 31.912C224.388 31.704 225.164 31.6 226.028 31.6C227.484 31.6 228.628 31.928 229.46 32.584C230.308 33.24 230.732 34.272 230.732 35.68V42.952C230.652 42.984 230.524 43.016 230.348 43.048C230.188 43.096 230.02 43.12 229.844 43.12C229.156 43.12 228.812 42.832 228.812 42.256V35.776Z" fill="white"/>
</svg>
